<?xml version="1.0" encoding="utf-8"?>
<!-- Generator: Adobe Illustrator 27.3.1, SVG Export Plug-In . SVG Version: 6.00 Build 0)  -->
<svg version="1.1" id="レイヤー_1" xmlns="http://www.w3.org/2000/svg" xmlns:xlink="http://www.w3.org/1999/xlink" x="0px"
	 y="0px" viewBox="0 0 40 24.7" style="enable-background:new 0 0 40 24.7;" xml:space="preserve">
<style type="text/css">
	.st0{fill:#231815;}
</style>
<g id="icon_freedial" transform="translate(1032 4902.968)">
	<path id="パス_9" class="st0" d="M-1032-4903v3.9c2.9,0,5.8,0.5,8.6,1.5c0.5,0.2,0.9,0.4,1.4,0.6c1.1-0.5,2.1-0.9,3.3-1.2
		c2.2-0.6,4.5-0.9,6.8-0.9c2.9,0,5.9,0.5,8.6,1.5c0.5,0.2,0.9,0.4,1.4,0.6c1.1-0.5,2.1-0.9,3.3-1.2c2.2-0.6,4.5-0.9,6.7-0.9v-3.9
		H-1032z"/>
	<path id="パス_10" class="st0" d="M-1007-4888.4c0,0.9,0.3,1.9,0.8,2.6c0.6,0.8,1.3,1.4,2.2,1.7c0.6,0.2,1.3,0.4,1.9,0.4
		c1,0,1.9-0.3,2.8-0.8c0.8-0.5,1.4-1.2,1.8-2.1c0.3-0.6,0.4-1.2,0.4-1.8c0-0.5-0.1-1-0.3-1.5c-0.3-0.6-0.6-1.1-1-1.6
		c-1-1.2-2.3-2.2-3.7-2.9c-1.1,0.6-2.1,1.3-3,2.2c-0.7,0.7-1.3,1.5-1.7,2.5C-1006.9-4889.2-1006.9-4888.8-1007-4888.4z"/>
	<path id="パス_11" class="st0" d="M-997.1-4893.8c1,0.9,1.8,2.1,2.3,3.3c0.3,0.7,0.4,1.4,0.4,2.1c0,1.4-0.5,2.8-1.3,4
		c-0.8,1.2-2,2.1-3.3,2.6c-0.9,0.4-1.9,0.6-2.9,0.6c-1.5,0-3-0.4-4.2-1.2c-1.2-0.8-2.1-1.8-2.7-3.1c-0.4-0.9-0.6-1.8-0.6-2.8
		c0-1.1,0.3-2.2,0.9-3.1c0.6-1,1.4-2,2.3-2.8c0.5-0.5,1.1-0.9,1.6-1.3c-0.4-0.1-0.8-0.3-1.2-0.4c-2-0.5-4-0.8-6-0.8
		c-2.5,0-4.9,0.4-7.2,1.2c0.7,0.5,1.5,1.1,2.1,1.7c1,0.9,1.8,2.1,2.3,3.3c0.3,0.7,0.4,1.4,0.4,2.1c0,1.4-0.5,2.8-1.3,4
		c-0.8,1.2-2,2.1-3.3,2.6c-0.9,0.4-1.9,0.6-2.9,0.6c-1.5,0-3-0.4-4.2-1.2c-1.2-0.8-2.1-1.8-2.7-3.1c-0.4-0.9-0.6-1.8-0.6-2.8
		c0-1.1,0.3-2.2,0.9-3.1c0.6-1,1.4-2,2.3-2.8c0.5-0.5,1.1-0.9,1.6-1.2c-0.4-0.1-0.8-0.3-1.2-0.4c-2-0.5-4-0.8-6-0.8v18.4h40v-18.4
		c-2.5,0-4.9,0.4-7.2,1.2C-998.5-4895-997.8-4894.4-997.1-4893.8z"/>
	<path id="パス_12" class="st0" d="M-1027-4888.4c0,0.9,0.3,1.9,0.8,2.6c0.6,0.8,1.3,1.4,2.2,1.7c0.6,0.2,1.3,0.4,1.9,0.4
		c1,0,1.9-0.3,2.8-0.8c0.8-0.5,1.4-1.2,1.8-2.1c0.3-0.6,0.4-1.2,0.4-1.8c0-0.5-0.1-1-0.3-1.5c-0.3-0.6-0.6-1.1-1-1.6
		c-1-1.2-2.3-2.2-3.7-2.9c-1.1,0.6-2.1,1.3-3,2.2c-0.7,0.7-1.3,1.5-1.7,2.5C-1026.9-4889.2-1027-4888.8-1027-4888.4z"/>
</g>
</svg>
