<?xml version="1.0" encoding="utf-8"?>
<!-- Generator: Adobe Illustrator 27.3.1, SVG Export Plug-In . SVG Version: 6.00 Build 0)  -->
<svg version="1.1" id="Icon_feather-shopping-cart" xmlns="http://www.w3.org/2000/svg" xmlns:xlink="http://www.w3.org/1999/xlink"
	 x="0px" y="0px" viewBox="0 0 36 34" style="enable-background:new 0 0 36 34;" xml:space="preserve">
<style type="text/css">
	.st0{fill:none;stroke:#231815;stroke-width:3;stroke-linecap:round;stroke-linejoin:round;}
</style>
<path id="パス_4" class="st0" d="M15,31c0,0.8-0.7,1.5-1.5,1.5S12,31.8,12,31s0.7-1.5,1.5-1.5l0,0C14.3,29.5,15,30.2,15,31z"/>
<path id="パス_5" class="st0" d="M31.5,31c0,0.8-0.7,1.5-1.5,1.5s-1.5-0.7-1.5-1.5s0.7-1.5,1.5-1.5l0,0
	C30.8,29.5,31.5,30.2,31.5,31z"/>
<path id="パス_6" class="st0" d="M1.5,1.5h6l4,19.6c0.3,1.4,1.6,2.4,3,2.4h14.6c1.4,0,2.7-1,3-2.4l2.4-12.3H9"/>
</svg>
